<?xml version="1.0" encoding="UTF-8" standalone="no"?>
<!-- Created with Inkscape (http://www.inkscape.org/) -->

<svg
   width="793.05005mm"
   height="774.80762mm"
   viewBox="0 0 793.05005 774.80762"
   version="1.1"
   id="svg1"
   xml:space="preserve"
   xmlns="http://www.w3.org/2000/svg"
   xmlns:svg="http://www.w3.org/2000/svg"><defs
     id="defs1" /><g
     id="layer1"
     transform="translate(1635.5812,233.99443)"><path
       style="fill:#1c2f3e;fill-opacity:1;stroke:none"
       d="m -1317.1631,-42.593048 v 0.264583 c -9.1179,2.10898 -18.1199,5.627629 -26.9875,8.594889 -20.6076,6.895638 -41.276,14.481157 -60.0604,25.5392032 -8.9295,5.256655 -24.4182,16.169103 -17.3398,28.3075728 6.5419,11.218372 22.7582,16.072533 34.2732,20.071578 31.2762,10.861934 64.5755,16.14798 97.102,21.798733 39.5293,6.867281 79.4427,11.758712 118.7979,19.631872 12.2009,2.44081 24.1145,5.97283 36.248,8.55665 47.1858,10.048287 94.7598,22.365557 138.11246,44.041887 18.47846,9.23923 36.09509,20.26381 51.40449,34.20191 8.16746,7.43592 15.38446,16.01039 21.39165,25.26403 18.88476,29.0906 19.64383,64.83202 10.35977,97.36666 -3.65708,12.81556 -9.41377,25.15467 -15.35727,37.04167 -17.32291,34.64581 -40.44617,65.82065 -64.89436,95.69971 -18.46584,22.56787 -38.53384,43.92671 -59.23844,64.44219 -16.942,16.78722 -34.2723,33.85568 -53.4679,48.08517 1.8259,0.073 3.8463,-1.21949 5.5562,-1.80738 4.8242,-1.65855 9.5936,-3.60456 14.2875,-5.60095 17.1126,-7.27824 33.7663,-15.40164 49.7417,-24.94105 69.85549,-41.71315 125.00819,-103.44542 159.17729,-177.20061 39.42247,-85.0948 46.03615,-185.06415 19.83335,-274.902071 -11.16753,-38.288488 -28.16759,-74.572577 -49.9724,-107.949997 -28.92433,-44.275592 -67.52753,-82.096412 -111.31224,-111.565992 -32.7682,-22.05486 -69.461,-39.2175 -107.4198,-50.17142 -39.1979,-11.31152 -80.117,-17.058 -120.9145,-16.05871 -104.3895,2.55708 -205.4818,46.60116 -277.8021,122.23362 -28.8875,30.210498 -52.9147,65.042479 -71.1149,102.6583342 -21.1882,43.7911238 -32.9403,90.9178988 -37.5944,139.1708258 -1.4834,15.38013 -1.2857,30.86905 -1.1022,46.30208 0.2141,18.00162 2.5264,36.35224 5.6573,54.08727 14.7716,83.67292 55.7752,159.5785 116.6811,218.69814 17.3866,16.87675 36.6094,32.08228 56.9358,45.26784 4.8388,3.13889 9.7102,6.18664 14.6644,9.14324 1.5594,0.93063 4.2219,3.30051 6.0854,3.27054 1.6462,-0.0265 3.832,-2.78859 5.0271,-3.81915 4.3717,-3.76979 8.7302,-7.58151 12.9646,-11.50562 16.7703,-15.54182 33.8322,-30.68082 50.0062,-46.85477 11.3041,-11.30409 22.1797,-22.96642 33.3375,-34.39583 9.4194,-9.64863 18.0749,-20.27085 26.6209,-30.69166 6.0469,-7.37358 11.8311,-14.954 17.4267,-22.67762 4.7413,-6.54457 9.2596,-13.18124 13.7195,-19.9203 4.2218,-6.3792 7.9989,-13.11658 11.6354,-19.84375 16.4951,-30.51448 28.8915,-69.25113 13.3094,-102.65833 -3.4988,-7.50122 -7.9205,-14.29686 -13.2424,-20.6375 -17.3386,-20.65752 -42.8602,-34.56203 -67.0882,-45.51569 -9.6048,-4.34237 -18.9083,-9.15649 -28.8396,-12.77326 -37.9579,-13.82338 -77.5814,-22.44837 -116.1521,-34.30869 -19.0117,-5.846017 -37.8286,-11.887447 -56.0917,-19.825137 -10.6493,-4.62853 -22.1751,-10.30299 -30.2737,-18.855441 -1.8668,-1.971327 -3.6115,-4.164798 -4.8842,-6.56969 -9.7653,-18.452813 13.2831,-30.613053 25.8975,-38.894588 3.339,-2.192114 6.9939,-4.151232 10.5833,-5.901449 3.7149,-1.8113228 7.3425,-3.8537048 11.1125,-5.5460428 43.9605,-19.7335502 90.3599,-32.8258382 137.848,-40.7897572 21.5569,-3.615219 43.5199,-6.620655 65.352,-7.557743 m -198.1729,-77.258332 -0.2646,0.26458 0.2646,-0.26458 m 552.7146,0 -0.26459,0.26458 0.26459,-0.26458 m -554.8312,2.11667 -0.2646,0.26458 0.2646,-0.26458 m 556.94786,0 -0.26458,0.26458 0.26458,-0.26458 m -559.06456,2.11666 -0.2646,0.26459 0.2646,-0.26459 m 561.18123,0 -0.26458,0.26459 0.26458,-0.26459 m -563.29793,2.11667 -0.2646,0.26458 0.2646,-0.26458 m 565.4146,0 -0.26459,0.26458 0.26459,-0.26458 m -442.6479,92.604165 -1.0583,0.529166 v 0.264584 l 1.3229,-0.529167 -0.2646,-0.264583 m 264.0541,561.710395 c 5.3248,-2.51897 10.2839,-6.99951 14.7718,-10.74889 1.3169,-1.10019 4.1828,-2.61948 4.5428,-4.33236 2.5137,-0.68516 4.9413,-3.53415 6.8792,-5.21712 4.8486,-4.21111 9.8405,-8.28109 14.5072,-12.69509 15.223,-14.39886 30.7208,-28.37411 45.5532,-43.20654 26.8057,-26.80572 51.75842,-55.65642 73.58971,-86.67106 19.46186,-27.64844 36.23835,-57.72903 43.97412,-90.86435 6.80081,-29.13045 10.86568,-58.51264 -4.69984,-85.725 -3.77813,-6.60508 -8.76833,-12.44911 -13.93345,-17.99166 -9.95896,-10.68675 -22.86799,-19.00343 -35.43053,-26.25337 -26.28971,-15.17201 -55.05051,-25.47338 -83.87291,-34.65221 -27.5868,-8.78532 -55.8356,-16.00549 -84.1375,-22.04394 -10.6154,-2.264917 -21.0675,-5.110277 -31.75,-7.111707 -54.9592,-10.29705 -110.5246,-17.39661 -165.1,-29.662532 -27.4903,-6.178499 -57.085,-12.388003 -81.7562,-26.551221 -9.0714,-5.207628 -20.1436,-14.401188 -14.6873,-25.968763 0.9123,-1.9339898 2.1751,-3.6970608 3.588,-5.2916658 1.9441,-2.194053 4.0035,-4.381322 6.3817,-6.12217196 4.2422,-3.10543004 8.5683,-6.16092804 13.1946,-8.67976704 7.4339,-4.0473632 15.1068,-7.8136702 23.0084,-10.8626442 -1.6303,-0.481947 -4.5404,1.057235 -6.0854,1.700025 -4.9971,2.078943 -9.9449,4.274481 -14.8167,6.631701 -3.0314,1.466707 -6.0085,3.0118322 -8.9958,4.5654842 -2.3367,1.215236 -4.6192,2.541382 -6.8792,3.891429 -11.5099,6.87542 -29.2312,20.6635308 -18.2561,35.2903508 1.8258,2.433185 4.2057,4.578596 6.6146,6.424543 11.8174,9.055713 26.9731,13.96168 41.0102,18.35999 22.273,6.978902 45.1263,11.854509 67.998,16.428652 33.4214,6.68402 67.1444,11.97078 100.8062,17.19139 18.0787,2.80383 36.3593,5.37086 54.2396,9.24323 47.8766,10.368807 95.0923,24.295867 140.7583,41.983607 23.8347,9.23187 47.53613,21.11047 67.73335,36.87941 13.46429,10.51227 25.55044,23.40341 32.37063,39.27059 8.6403,20.10162 7.38023,41.98943 3.18928,62.97084 -3.51794,17.61203 -8.66647,34.38523 -15.95646,50.79999 -12.91407,29.07846 -31.48735,55.73381 -51.1367,80.60929 -24.7267,31.30339 -52.4493,60.23831 -81.4202,87.61687 -9.7214,9.18717 -19.622,18.2206 -29.7429,26.96897 -5.1018,4.40993 -11.8304,8.59217 -16.0537,13.8257 M -1466.9172,0.53403424 v 0.264583 l 2.6458,2.64583396 c 4.551,-1.149866 10.2018,-5.473245 14.0229,-8.202083 l -3.13,-2.94265 -3.4807,1.823855 -10.058,6.41046104 m -28.8396,-1.85208304 0.2646,0.264583 -0.2646,-0.264583 m 58.4729,0 -0.2646,0.264583 0.2646,-0.264583 m -59.2667,0.264583 -0.5291,0.26458304 v 0.264584 l 0.5291,-0.52916704 m -44.1854,70.6437488 c 1.0692,1.8796 4.7003,3.18288 6.6146,4.09691 5.8436,2.7902 11.7056,5.31673 17.7271,7.70379 24.8822,9.86387 51.6687,15.87506 77.7875,21.447197 13.9535,2.97682 27.9591,5.80682 41.8042,9.25118 10.8109,2.68957 21.4914,5.8667 32.2791,8.59328 11.2593,2.84575 22.4713,6.82258 33.3375,10.90359 27.0475,10.15823 54.1543,22.5122 75.6719,42.23005 10.8064,9.90262 20.2855,22.05182 25.2558,36.00316 2.8996,8.13891 4.5576,16.53207 5.1466,25.13542 0.7009,10.23723 -0.3549,21.19896 -2.4926,31.22083 -4.0139,18.81823 -10.7437,35.7723 -19.3787,52.91666 -7.4294,14.75091 -16.7176,28.54309 -26.1441,42.06856 -7.7718,11.15132 -15.9993,22.3164 -24.9619,32.54394 -18.8042,21.45832 -37.3321,42.92309 -57.9219,62.74074 -8.4254,8.10946 -16.5717,17.31716 -25.9751,24.30718 v 0.26458 c 2.6719,-1.01557 5.099,-3.25736 7.4084,-4.91585 7.2381,-5.19807 13.6052,-11.75697 20.1083,-17.81467 21.2158,-19.76262 40.9879,-40.95215 60.019,-62.80547 20.3086,-23.32009 39.6556,-48.65504 54.4845,-75.85984 10.0928,-18.51592 19.5449,-38.17667 22.5853,-59.26666 1.9338,-13.41365 3.1684,-26.47623 0.9085,-39.95209 -5.4593,-32.55292 -29.6428,-56.25793 -57.2239,-72.12673 -44.8087,-25.78072 -95.1986,-35.12408 -144.8026,-47.02452 -16.5199,-3.963257 -33.0437,-8.069787 -49.4771,-12.416867 -19.3386,-5.11558 -39.0025,-10.47727 -57.15,-19.03779 -8.6265,-4.06933 -17.8781,-8.705222 -23.9409,-16.346164 -7.3976,-9.323268 -3.1944,-18.902205 4.3618,-26.458332 12.4728,-12.472818 30.5554,-20.6747708 46.8312,-26.98749976 -1.4485,-0.502488 -3.4277,0.710358 -4.7625,1.28312596 -3.8075,1.63388 -7.6108,3.261946 -11.3771,4.985225 -9.5157,4.3539978 -18.6471,9.3288228 -27.2959,15.2092138 -6.9932,4.754684 -14.0509,10.664788 -17.2522,18.739101 -3.8667,9.752311 2.524,18.565533 9.8877,24.447409 2.0474,1.635429 5.2584,4.699131 7.9375,4.921341 m 124.8834,-68.79166576 -0.2646,0.26458396 0.2646,-0.26458396 m -63.2469,4.73659696 c -1.916,0.592341 -3.8806,2.513025 -5.5448,3.618772 -6.4581,4.2909518 -15.4426,12.6166708 -15.8644,21.0133798 -0.2782,5.538099 1.4313,10.007012 5.3868,13.970078 0.9051,0.906792 2.9159,3.32428 4.3948,2.675999 1.0055,-0.440735 1.7253,-1.559724 1.2043,-2.599518 -2.2904,-4.571427 -6.3288,-7.802302 -5.6291,-13.517392 0.8775,-7.167973 6.6113,-12.881901 12.14,-17.020537 1.8787,-1.406309 4.6616,-2.54248 6.2094,-4.2859778 0.953,-1.073578 -0.8423,-4.304518 -2.297,-3.854804 m -8.7198,7.9634028 -0.2646,0.264583 0.2646,-0.264583 m 69.85,8.73125 -0.2646,0.264583 0.2646,-0.264583 m 2.1167,2.116666 -0.2646,0.264584 0.2646,-0.264584 m -137.5834,8.202083 -0.2646,0.264584 0.2646,-0.264584 m 70.9084,19.05 10.8479,4.497916 2.6458,-4.497916 c -2.4048,-0.954205 -5.8214,-4.150522 -8.4667,-3.86727 -1.0618,0.113688 -2.0423,1.037404 -2.9104,1.595445 -0.9847,0.633036 -1.7787,1.122735 -2.1166,2.271825 m 20.6375,8.73125 c 4.5057,0.929659 8.9987,1.941095 13.4937,2.914292 1.2597,0.272722 3.6738,1.419035 4.9162,0.884377 1.1189,-0.48143 1.7963,-3.745055 1.963,-4.857003 -3.6099,-1.154645 -7.2458,-2.242175 -10.8479,-3.409546 -1.2945,-0.419483 -3.3769,-1.662366 -4.7521,-1.371751 -1.7425,0.368259 -4.0906,4.308393 -4.7729,5.839631 m 3.7041,-4.497917 -0.2646,0.264583 0.2646,-0.264583 m -91.0166,6.614583 -0.2646,0.264583 0.2646,-0.264583 m 120.9145,0.529167 -3.175,5.820833 22.7542,4.497921 -0.4242,-5.421314 -5.3966,-1.667728 -13.7584,-3.229712 m 40.7459,9.260414 -3.7042,6.87917 c 5.4878,1.30709 11.3435,1.89426 16.9333,2.71766 1.1527,0.16976 4.7066,1.35289 5.549,0.29746 0.7923,-0.9927 0.585,-5.17914 -0.5611,-5.81082 -1.5527,-0.85582 -4.0454,-0.95226 -5.7816,-1.34513 -4.1325,-0.93509 -8.2781,-1.93154 -12.4354,-2.73834 m 39.4229,16.13959 8.7312,2.16853 6.0855,1.48008 6.2142,1.09612 1.0953,-2.89265 0.1578,-2.49662 -4.0276,-1.26878 -11.1127,-2.71612 -4.3881,-0.63116 -2.7556,5.2606 m 46.5667,10.58333 28.8395,6.879157 c -0.2344,-1.56515 -0.936,-4.58822 -2.1903,-5.63486 -1.1524,-0.961567 -3.2663,-1.129057 -4.6888,-1.474587 -3.4427,-0.83625 -6.8915,-1.70751 -10.3188,-2.60991 -1.9261,-0.50714 -5.7402,-2.28016 -7.669,-1.7351 -1.5155,0.42826 -3.3239,3.2093 -3.9726,4.5753 m 47.8895,12.699997 c 6.8499,1.43221 13.7556,4.54643 20.3729,6.84241 1.9228,0.66714 6.177,3.04045 8.1668,2.47414 1.384,-0.39391 1.8321,-3.61083 1.8874,-4.81864 -6.5294,-1.78206 -13.0266,-4.84066 -19.3146,-7.35549 -1.7499,-0.69989 -5.7652,-3.12352 -7.6241,-2.51432 -1.5418,0.50527 -2.9691,3.95377 -3.4884,5.3719 m 50.8,17.19791 v 0.52917 c 5.6064,1.89743 10.9516,4.79971 16.4042,7.10312 1.7554,0.74156 4.6737,2.74873 6.6042,2.61031 1.6541,-0.1186 3.948,-3.78653 4.5083,-5.21551 l -16.6688,-7.44567 -5.7971,-2.34572 -5.0508,4.7643 m 53.4459,15.61042 -7.9375,4.7625 v 0.26458 c 5.2414,3.42376 10.2581,7.22624 15.3458,10.87201 1.4341,1.02759 4.2995,3.88807 6.0854,3.92425 2.0227,0.041 5.4845,-3.93645 6.8792,-5.27126 v -0.26458 l -20.3729,-14.2875 m 201.34788,19.57917 -0.26458,0.26458 0.26458,-0.26458 m -302.41878,1.85208 -0.2645,0.26458 0.2645,-0.26458 m 134.4084,12.96458 c 2.9267,4.68376 6.9452,8.93654 10.4216,13.22917 0.902,1.11369 2.3603,3.99304 3.8763,4.23495 2.1859,0.34875 6.1555,-2.85803 8.1916,-3.70578 -2.5435,-4.90939 -7.6247,-9.16786 -11.1135,-13.46314 -0.946,-1.16465 -2.7138,-4.24735 -4.2772,-4.48609 -2.0872,-0.31878 -5.1953,3.39307 -7.0988,4.19089 m 182.82705,0 -0.26459,0.26459 0.26459,-0.26459 m -342.63545,3.96875 -0.2645,0.26459 0.2645,-0.26459 m 344.75211,0.26459 -0.26458,0.26458 0.26458,-0.26458 m -159.80831,35.18958 2.8502,8.73125 5.3519,15.08125 6.3736,-4.1221 1.9526,-1.98722 -1.3356,-3.68027 -4.3015,-9.525 -2.9168,-6.61458 -1.4333,-2.1385 -6.5411,4.25517 m 9.525,21.96041 -0.2646,0.26459 0.2646,-0.26459 m -9.525,63.76459 h 9.525 l 1.9949,-9.78959 5.4134,-25.66458 -6.0854,-1.15083 -2.4505,-0.15432 -0.8235,2.36348 -1.4922,6.87917 -4.3419,19.05 -1.7398,8.46667 m -17.9917,34.13124 c -6.2172,10.91432 -14.5377,21.29263 -21.893,31.48542 -3.278,4.54249 -8.1097,9.57726 -10.1216,14.81667 l 6.0854,2.64583 2.523,0.51043 2.5768,-3.30858 6.0905,-8.31454 16.2494,-22.48939 6.9562,-10.05417 -8.4667,-5.29167 m -196.85,66.93959 -0.2646,0.26458 0.2646,-0.26458 m -31.4854,6.61458 -0.2646,0.26458 0.2646,-0.26458 m 334.4333,2.11667 -0.2646,0.26458 0.2646,-0.26458 m -342.9,8.46666 -0.2645,0.26458 0.2645,-0.26458 m 353.21878,1.85208 -0.26458,0.26459 0.26458,-0.26459 m -332.05208,2.38125 -0.2646,0.26459 0.2646,-0.26459 m 381,0 -0.26459,0.26459 0.26459,-0.26459 m -80.6979,8.20209 -0.2646,0.26458 0.2646,-0.26458 m -232.5688,65.35208 v 0.26458 c 2.8347,2.18482 6.766,6.19213 10.3188,6.87917 3.9415,-5.59527 10.2358,-10.23581 15.0812,-15.08125 11.3787,-11.37863 23.0198,-22.49049 34.3959,-33.86667 l 10.5833,-10.58333 c 1.6352,-1.63524 3.8916,-3.27538 5.0271,-5.29167 l -5.0507,-4.28087 -2.3577,-1.34113 -5.3365,4.67981 -13.1947,12.3632 -49.4667,46.25816 m 230.4521,-63.23542 -0.2646,0.26459 0.2646,-0.26459 m -3.9687,6.61459 -0.2646,0.26458 0.2646,-0.26458 m -319.6167,8.46666 -0.2646,0.26459 0.2646,-0.26459 m -2.1167,2.11667 -0.2645,0.26458 0.2645,-0.26458 m -150.5479,4.23333 -0.2646,0.26459 0.2646,-0.26459 m 112.4479,6.35 -0.2645,0.26459 0.2645,-0.26459 m 169.0688,3.96875 -0.2646,0.26459 0.2646,-0.26459 m -1.8521,12.96459 -0.2646,0.26458 0.2646,-0.26458 m -2.1167,2.11666 -0.2646,0.26459 0.2646,-0.26459 m 156.6334,0 -0.2646,0.26459 0.2646,-0.26459 m -158.75,2.11667 -0.2646,0.26458 0.2646,-0.26458 m -2.1167,2.11667 -0.2646,0.26458 0.2646,-0.26458 m -2.1167,2.11666 -0.2646,0.26459 0.2646,-0.26459 m -188.3833,2.11667 -0.2646,0.26458 0.2646,-0.26458 m 329.9354,10.31875 -0.2646,0.26458 0.2646,-0.26458 m -344.7521,2.38125 -0.2645,0.26458 0.2645,-0.26458 m 357.4521,8.20208 -0.2646,0.26459 0.2646,-0.26459 m -35.9833,10.58333 -0.2646,0.26459 z"
       id="path1" /></g></svg>
